<?xml version="1.0" encoding="UTF-8" standalone="no"?><svg xmlns="http://www.w3.org/2000/svg" xmlns:xlink="http://www.w3.org/1999/xlink" contentStyleType="text/css" height="487px" preserveAspectRatio="none" style="width:673px;height:487px;background:#FFFFFF;" version="1.1" viewBox="0 0 673 487" width="673px" zoomAndPan="magnify"><defs/><g><!--MD5=[ecb45ce5fe21d5b6825a22ee51409454]
cluster via--><g id="cluster_via"><path d="M384.5,6 L406.5,6 A3.75,3.75 0 0 1 409,8.5 L416,29.6094 L663.5,29.6094 A2.5,2.5 0 0 1 666,32.1094 L666,251.5 A2.5,2.5 0 0 1 663.5,254 L384.5,254 A2.5,2.5 0 0 1 382,251.5 L382,8.5 A2.5,2.5 0 0 1 384.5,6 " fill="none" style="stroke:#000000;stroke-width:1.5;"/><line style="stroke:#000000;stroke-width:1.5;" x1="382" x2="416" y1="29.6094" y2="29.6094"/><text fill="#000000" font-family="sans-serif" font-size="14" font-weight="bold" lengthAdjust="spacing" textLength="21" x="386" y="22.5332">via</text></g><!--MD5=[8587418ecdce7e480c702cc07284b200]
cluster via::http--><g id="cluster_via::http"><path d="M440.5,278 L498.5,278 A3.75,3.75 0 0 1 501,280.5 L508,301.6094 L607.5,301.6094 A2.5,2.5 0 0 1 610,304.1094 L610,375.5 A2.5,2.5 0 0 1 607.5,378 L440.5,378 A2.5,2.5 0 0 1 438,375.5 L438,280.5 A2.5,2.5 0 0 1 440.5,278 " fill="none" style="stroke:#000000;stroke-width:1.5;"/><line style="stroke:#000000;stroke-width:1.5;" x1="438" x2="508" y1="301.6094" y2="301.6094"/><text fill="#000000" font-family="sans-serif" font-size="14" font-weight="bold" lengthAdjust="spacing" textLength="57" x="442" y="294.5332">via::http</text></g><!--MD5=[da356a16bdb2b7476dcbcc4d463ba117]
cluster via::comms--><g id="cluster_via::comms"><path d="M8.5,114 L87.5,114 A3.75,3.75 0 0 1 90,116.5 L97,137.6094 L355.5,137.6094 A2.5,2.5 0 0 1 358,140.1094 L358,478.2 A2.5,2.5 0 0 1 355.5,480.7 L8.5,480.7 A2.5,2.5 0 0 1 6,478.2 L6,116.5 A2.5,2.5 0 0 1 8.5,114 " fill="none" style="stroke:#000000;stroke-width:1.5;"/><line style="stroke:#000000;stroke-width:1.5;" x1="6" x2="97" y1="137.6094" y2="137.6094"/><text fill="#000000" font-family="sans-serif" font-size="14" font-weight="bold" lengthAdjust="spacing" textLength="78" x="10" y="130.5332">via::comms</text></g><!--MD5=[0625d55a53f232cfc497c82459814f5e]
class via::http_server--><g id="elem_via::http_server"><rect codeLine="9" fill="#F1F1F1" height="48" id="via::http_server" rx="2.5" ry="2.5" style="stroke:#181818;stroke-width:0.5;" width="174" x="417" y="42"/><ellipse cx="432" cy="58" fill="#ADD1B2" rx="11" ry="11" style="stroke:#181818;stroke-width:1.0;"/><path d="M434.7656,53.875 Q434.9219,53.6563 435.1094,53.5469 Q435.2969,53.4375 435.5156,53.4375 Q435.8906,53.4375 436.125,53.6953 Q436.3594,53.9531 436.3594,54.5625 L436.3594,56.0156 Q436.3594,56.625 436.125,56.8906 Q435.8906,57.1563 435.5156,57.1563 Q435.1719,57.1563 434.9688,56.9531 Q434.7656,56.7656 434.6563,56.25 Q434.6094,55.8906 434.4219,55.7031 Q434.0938,55.3281 433.4844,55.1094 Q432.875,54.8906 432.25,54.8906 Q431.4844,54.8906 430.8516,55.2188 Q430.2188,55.5469 429.7266,56.2969 Q429.2344,57.0469 429.2344,58.0781 L429.2344,59.1719 Q429.2344,60.4063 430.125,61.2266 Q431.0156,62.0469 432.6094,62.0469 Q433.5469,62.0469 434.2031,61.7969 Q434.5938,61.6406 435.0156,61.2031 Q435.2813,60.9375 435.4297,60.8594 Q435.5781,60.7813 435.7813,60.7813 Q436.1094,60.7813 436.3672,61.0391 Q436.625,61.2969 436.625,61.6406 Q436.625,61.9844 436.2813,62.3906 Q435.7813,62.9688 434.9844,63.2969 Q433.9063,63.75 432.6094,63.75 Q431.0938,63.75 429.8906,63.125 Q428.9063,62.625 428.2188,61.5547 Q427.5313,60.4844 427.5313,59.2031 L427.5313,58.0469 Q427.5313,56.7188 428.1484,55.5703 Q428.7656,54.4219 429.8594,53.8047 Q430.9531,53.1875 432.1875,53.1875 Q432.9219,53.1875 433.5703,53.3516 Q434.2188,53.5156 434.7656,53.875 Z " fill="#000000"/><text fill="#000000" font-family="sans-serif" font-size="14" lengthAdjust="spacing" textLength="72" x="446" y="63.7285">http_server</text><rect fill="#FFFFFF" height="17.0938" style="stroke:#181818;stroke-width:1.0;stroke-dasharray:2.0,2.0;" width="68" x="526" y="39"/><text fill="#000000" font-family="sans-serif" font-size="12" font-style="italic" lengthAdjust="spacing" textLength="66" x="527" y="52.457">socket_type</text><line style="stroke:#181818;stroke-width:0.5;" x1="418" x2="590" y1="74" y2="74"/><line style="stroke:#181818;stroke-width:0.5;" x1="418" x2="590" y1="82" y2="82"/></g><!--MD5=[23bde6fb47da3c644129181c53d31875]
class via::http_connection--><g id="elem_via::http_connection"><rect codeLine="10" fill="#F1F1F1" height="48" id="via::http_connection" rx="2.5" ry="2.5" style="stroke:#181818;stroke-width:0.5;" width="203" x="422.5" y="170"/><ellipse cx="437.5" cy="186" fill="#ADD1B2" rx="11" ry="11" style="stroke:#181818;stroke-width:1.0;"/><path d="M440.2656,181.875 Q440.4219,181.6563 440.6094,181.5469 Q440.7969,181.4375 441.0156,181.4375 Q441.3906,181.4375 441.625,181.6953 Q441.8594,181.9531 441.8594,182.5625 L441.8594,184.0156 Q441.8594,184.625 441.625,184.8906 Q441.3906,185.1563 441.0156,185.1563 Q440.6719,185.1563 440.4688,184.9531 Q440.2656,184.7656 440.1563,184.25 Q440.1094,183.8906 439.9219,183.7031 Q439.5938,183.3281 438.9844,183.1094 Q438.375,182.8906 437.75,182.8906 Q436.9844,182.8906 436.3516,183.2188 Q435.7188,183.5469 435.2266,184.2969 Q434.7344,185.0469 434.7344,186.0781 L434.7344,187.1719 Q434.7344,188.4063 435.625,189.2266 Q436.5156,190.0469 438.1094,190.0469 Q439.0469,190.0469 439.7031,189.7969 Q440.0938,189.6406 440.5156,189.2031 Q440.7813,188.9375 440.9297,188.8594 Q441.0781,188.7813 441.2813,188.7813 Q441.6094,188.7813 441.8672,189.0391 Q442.125,189.2969 442.125,189.6406 Q442.125,189.9844 441.7813,190.3906 Q441.2813,190.9688 440.4844,191.2969 Q439.4063,191.75 438.1094,191.75 Q436.5938,191.75 435.3906,191.125 Q434.4063,190.625 433.7188,189.5547 Q433.0313,188.4844 433.0313,187.2031 L433.0313,186.0469 Q433.0313,184.7188 433.6484,183.5703 Q434.2656,182.4219 435.3594,181.8047 Q436.4531,181.1875 437.6875,181.1875 Q438.4219,181.1875 439.0703,181.3516 Q439.7188,181.5156 440.2656,181.875 Z " fill="#000000"/><text fill="#000000" font-family="sans-serif" font-size="14" lengthAdjust="spacing" textLength="101" x="451.5" y="191.7285">http_connection</text><rect fill="#FFFFFF" height="17.0938" style="stroke:#181818;stroke-width:1.0;stroke-dasharray:2.0,2.0;" width="68" x="560.5" y="167"/><text fill="#000000" font-family="sans-serif" font-size="12" font-style="italic" lengthAdjust="spacing" textLength="66" x="561.5" y="180.457">socket_type</text><line style="stroke:#181818;stroke-width:0.5;" x1="423.5" x2="624.5" y1="202" y2="202"/><line style="stroke:#181818;stroke-width:0.5;" x1="423.5" x2="624.5" y1="210" y2="210"/></g><!--MD5=[551e75bd0c93cdfec17b81308042f09c]
class via::http::request_receiver--><g id="elem_via::http::request_receiver"><rect fill="#F1F1F1" height="48" id="via::http::request_receiver" rx="2.5" ry="2.5" style="stroke:#181818;stroke-width:0.5;" width="139" x="454.5" y="314"/><ellipse cx="469.5" cy="330" fill="#ADD1B2" rx="11" ry="11" style="stroke:#181818;stroke-width:1.0;"/><path d="M472.2656,325.875 Q472.4219,325.6563 472.6094,325.5469 Q472.7969,325.4375 473.0156,325.4375 Q473.3906,325.4375 473.625,325.6953 Q473.8594,325.9531 473.8594,326.5625 L473.8594,328.0156 Q473.8594,328.625 473.625,328.8906 Q473.3906,329.1563 473.0156,329.1563 Q472.6719,329.1563 472.4688,328.9531 Q472.2656,328.7656 472.1563,328.25 Q472.1094,327.8906 471.9219,327.7031 Q471.5938,327.3281 470.9844,327.1094 Q470.375,326.8906 469.75,326.8906 Q468.9844,326.8906 468.3516,327.2188 Q467.7188,327.5469 467.2266,328.2969 Q466.7344,329.0469 466.7344,330.0781 L466.7344,331.1719 Q466.7344,332.4063 467.625,333.2266 Q468.5156,334.0469 470.1094,334.0469 Q471.0469,334.0469 471.7031,333.7969 Q472.0938,333.6406 472.5156,333.2031 Q472.7813,332.9375 472.9297,332.8594 Q473.0781,332.7813 473.2813,332.7813 Q473.6094,332.7813 473.8672,333.0391 Q474.125,333.2969 474.125,333.6406 Q474.125,333.9844 473.7813,334.3906 Q473.2813,334.9688 472.4844,335.2969 Q471.4063,335.75 470.1094,335.75 Q468.5938,335.75 467.3906,335.125 Q466.4063,334.625 465.7188,333.5547 Q465.0313,332.4844 465.0313,331.2031 L465.0313,330.0469 Q465.0313,328.7188 465.6484,327.5703 Q466.2656,326.4219 467.3594,325.8047 Q468.4531,325.1875 469.6875,325.1875 Q470.4219,325.1875 471.0703,325.3516 Q471.7188,325.5156 472.2656,325.875 Z " fill="#000000"/><text fill="#000000" font-family="sans-serif" font-size="14" lengthAdjust="spacing" textLength="107" x="483.5" y="335.7285">request_receiver</text><line style="stroke:#181818;stroke-width:0.5;" x1="455.5" x2="592.5" y1="346" y2="346"/><line style="stroke:#181818;stroke-width:0.5;" x1="455.5" x2="592.5" y1="354" y2="354"/></g><!--MD5=[c1e0eb6d8db4f04fd6afacb7baaccaeb]
class via::comms::server--><g id="elem_via::comms::server"><rect codeLine="20" fill="#F1F1F1" height="48" id="via::comms::server" rx="2.5" ry="2.5" style="stroke:#181818;stroke-width:0.5;" width="142" x="176" y="170"/><ellipse cx="191" cy="186" fill="#ADD1B2" rx="11" ry="11" style="stroke:#181818;stroke-width:1.0;"/><path d="M193.7656,181.875 Q193.9219,181.6563 194.1094,181.5469 Q194.2969,181.4375 194.5156,181.4375 Q194.8906,181.4375 195.125,181.6953 Q195.3594,181.9531 195.3594,182.5625 L195.3594,184.0156 Q195.3594,184.625 195.125,184.8906 Q194.8906,185.1563 194.5156,185.1563 Q194.1719,185.1563 193.9688,184.9531 Q193.7656,184.7656 193.6563,184.25 Q193.6094,183.8906 193.4219,183.7031 Q193.0938,183.3281 192.4844,183.1094 Q191.875,182.8906 191.25,182.8906 Q190.4844,182.8906 189.8516,183.2188 Q189.2188,183.5469 188.7266,184.2969 Q188.2344,185.0469 188.2344,186.0781 L188.2344,187.1719 Q188.2344,188.4063 189.125,189.2266 Q190.0156,190.0469 191.6094,190.0469 Q192.5469,190.0469 193.2031,189.7969 Q193.5938,189.6406 194.0156,189.2031 Q194.2813,188.9375 194.4297,188.8594 Q194.5781,188.7813 194.7813,188.7813 Q195.1094,188.7813 195.3672,189.0391 Q195.625,189.2969 195.625,189.6406 Q195.625,189.9844 195.2813,190.3906 Q194.7813,190.9688 193.9844,191.2969 Q192.9063,191.75 191.6094,191.75 Q190.0938,191.75 188.8906,191.125 Q187.9063,190.625 187.2188,189.5547 Q186.5313,188.4844 186.5313,187.2031 L186.5313,186.0469 Q186.5313,184.7188 187.1484,183.5703 Q187.7656,182.4219 188.8594,181.8047 Q189.9531,181.1875 191.1875,181.1875 Q191.9219,181.1875 192.5703,181.3516 Q193.2188,181.5156 193.7656,181.875 Z " fill="#000000"/><text fill="#000000" font-family="sans-serif" font-size="14" lengthAdjust="spacing" textLength="40" x="205" y="191.7285">server</text><rect fill="#FFFFFF" height="17.0938" style="stroke:#181818;stroke-width:1.0;stroke-dasharray:2.0,2.0;" width="68" x="253" y="167"/><text fill="#000000" font-family="sans-serif" font-size="12" font-style="italic" lengthAdjust="spacing" textLength="66" x="254" y="180.457">socket_type</text><line style="stroke:#181818;stroke-width:0.5;" x1="177" x2="317" y1="202" y2="202"/><line style="stroke:#181818;stroke-width:0.5;" x1="177" x2="317" y1="210" y2="210"/></g><!--MD5=[efc0e54c63629b61746ab7f1253be7d5]
class via::comms::connection--><g id="elem_via::comms::connection"><rect codeLine="21" fill="#F1F1F1" height="48" id="via::comms::connection" rx="2.5" ry="2.5" style="stroke:#181818;stroke-width:0.5;" width="171" x="170.5" y="314"/><ellipse cx="185.5" cy="330" fill="#ADD1B2" rx="11" ry="11" style="stroke:#181818;stroke-width:1.0;"/><path d="M188.2656,325.875 Q188.4219,325.6563 188.6094,325.5469 Q188.7969,325.4375 189.0156,325.4375 Q189.3906,325.4375 189.625,325.6953 Q189.8594,325.9531 189.8594,326.5625 L189.8594,328.0156 Q189.8594,328.625 189.625,328.8906 Q189.3906,329.1563 189.0156,329.1563 Q188.6719,329.1563 188.4688,328.9531 Q188.2656,328.7656 188.1563,328.25 Q188.1094,327.8906 187.9219,327.7031 Q187.5938,327.3281 186.9844,327.1094 Q186.375,326.8906 185.75,326.8906 Q184.9844,326.8906 184.3516,327.2188 Q183.7188,327.5469 183.2266,328.2969 Q182.7344,329.0469 182.7344,330.0781 L182.7344,331.1719 Q182.7344,332.4063 183.625,333.2266 Q184.5156,334.0469 186.1094,334.0469 Q187.0469,334.0469 187.7031,333.7969 Q188.0938,333.6406 188.5156,333.2031 Q188.7813,332.9375 188.9297,332.8594 Q189.0781,332.7813 189.2813,332.7813 Q189.6094,332.7813 189.8672,333.0391 Q190.125,333.2969 190.125,333.6406 Q190.125,333.9844 189.7813,334.3906 Q189.2813,334.9688 188.4844,335.2969 Q187.4063,335.75 186.1094,335.75 Q184.5938,335.75 183.3906,335.125 Q182.4063,334.625 181.7188,333.5547 Q181.0313,332.4844 181.0313,331.2031 L181.0313,330.0469 Q181.0313,328.7188 181.6484,327.5703 Q182.2656,326.4219 183.3594,325.8047 Q184.4531,325.1875 185.6875,325.1875 Q186.4219,325.1875 187.0703,325.3516 Q187.7188,325.5156 188.2656,325.875 Z " fill="#000000"/><text fill="#000000" font-family="sans-serif" font-size="14" lengthAdjust="spacing" textLength="69" x="199.5" y="335.7285">connection</text><rect fill="#FFFFFF" height="17.0938" style="stroke:#181818;stroke-width:1.0;stroke-dasharray:2.0,2.0;" width="68" x="276.5" y="311"/><text fill="#000000" font-family="sans-serif" font-size="12" font-style="italic" lengthAdjust="spacing" textLength="66" x="277.5" y="324.457">socket_type</text><line style="stroke:#181818;stroke-width:0.5;" x1="171.5" x2="340.5" y1="346" y2="346"/><line style="stroke:#181818;stroke-width:0.5;" x1="171.5" x2="340.5" y1="354" y2="354"/></g><g id="elem_via::comms::GMN14"><path d="M171.5,422 L171.5,464.7031 A0,0 0 0 0 171.5,464.7031 L340.5,464.7031 A0,0 0 0 0 340.5,464.7031 L340.5,432 L330.5,422 L260,422 L256,362.45 L252,422 L171.5,422 A0,0 0 0 0 171.5,422 " fill="#FEFFDD" style="stroke:#181818;stroke-width:0.5;"/><path d="M330.5,422 L330.5,432 L340.5,432 L330.5,422 " fill="#FEFFDD" style="stroke:#181818;stroke-width:0.5;"/><text fill="#000000" font-family="sans-serif" font-size="13" font-weight="bold" lengthAdjust="spacing" textLength="74" x="177.5" y="440.4951">socket_type</text><text fill="#000000" font-family="sans-serif" font-size="13" lengthAdjust="spacing" textLength="46" x="255.5" y="440.4951">is either</text><text fill="#000000" font-family="sans-serif" font-size="13" font-weight="bold" lengthAdjust="spacing" textLength="66" x="177.5" y="456.8467">tcp_socket</text><text fill="#000000" font-family="sans-serif" font-size="13" lengthAdjust="spacing" textLength="11" x="247.5" y="456.8467">or</text><text fill="#000000" font-family="sans-serif" font-size="13" font-weight="bold" lengthAdjust="spacing" textLength="63" x="262.5" y="456.8467">ssl_socket</text></g><!--MD5=[f737f936924cb6c9e160fa12100208dd]
class via::comms::tcp_acceptor--><g id="elem_via::comms::tcp_acceptor"><rect fill="#F1F1F1" height="48" id="via::comms::tcp_acceptor" rx="2.5" ry="2.5" style="stroke:#181818;stroke-width:0.5;" width="114" x="22" y="314"/><ellipse cx="37" cy="330" fill="#ADD1B2" rx="11" ry="11" style="stroke:#181818;stroke-width:1.0;"/><path d="M39.7656,325.875 Q39.9219,325.6563 40.1094,325.5469 Q40.2969,325.4375 40.5156,325.4375 Q40.8906,325.4375 41.125,325.6953 Q41.3594,325.9531 41.3594,326.5625 L41.3594,328.0156 Q41.3594,328.625 41.125,328.8906 Q40.8906,329.1563 40.5156,329.1563 Q40.1719,329.1563 39.9688,328.9531 Q39.7656,328.7656 39.6563,328.25 Q39.6094,327.8906 39.4219,327.7031 Q39.0938,327.3281 38.4844,327.1094 Q37.875,326.8906 37.25,326.8906 Q36.4844,326.8906 35.8516,327.2188 Q35.2188,327.5469 34.7266,328.2969 Q34.2344,329.0469 34.2344,330.0781 L34.2344,331.1719 Q34.2344,332.4063 35.125,333.2266 Q36.0156,334.0469 37.6094,334.0469 Q38.5469,334.0469 39.2031,333.7969 Q39.5938,333.6406 40.0156,333.2031 Q40.2813,332.9375 40.4297,332.8594 Q40.5781,332.7813 40.7813,332.7813 Q41.1094,332.7813 41.3672,333.0391 Q41.625,333.2969 41.625,333.6406 Q41.625,333.9844 41.2813,334.3906 Q40.7813,334.9688 39.9844,335.2969 Q38.9063,335.75 37.6094,335.75 Q36.0938,335.75 34.8906,335.125 Q33.9063,334.625 33.2188,333.5547 Q32.5313,332.4844 32.5313,331.2031 L32.5313,330.0469 Q32.5313,328.7188 33.1484,327.5703 Q33.7656,326.4219 34.8594,325.8047 Q35.9531,325.1875 37.1875,325.1875 Q37.9219,325.1875 38.5703,325.3516 Q39.2188,325.5156 39.7656,325.875 Z " fill="#000000"/><text fill="#000000" font-family="sans-serif" font-size="14" lengthAdjust="spacing" textLength="82" x="51" y="335.7285">tcp_acceptor</text><line style="stroke:#181818;stroke-width:0.5;" x1="23" x2="135" y1="346" y2="346"/><line style="stroke:#181818;stroke-width:0.5;" x1="23" x2="135" y1="354" y2="354"/></g><!--MD5=[3566aa0d24c2d94651c8a07eed4c30e6]
reverse link via::http_server to via::http_connection--><g id="link_via::http_server_via::http_connection"><path codeLine="12" d="M509.97,104.59 C513.35,125.91 517.47,151.88 520.37,170.14 " fill="none" id="via::http_server-backto-via::http_connection" style="stroke:#181818;stroke-width:1.0;"/><polygon fill="#181818" points="507.95,91.9,504.9433,98.4544,509.8371,103.7507,512.8438,97.1963,507.95,91.9" style="stroke:#181818;stroke-width:1.0;"/><text fill="#000000" font-family="sans-serif" font-size="13" lengthAdjust="spacing" textLength="5" x="513.7226" y="159.12">*</text></g><!--MD5=[cbbd1920c511eafe71c66fd189415bf6]
reverse link via::http_connection to via::http::request_receiver--><g id="link_via::http_connection_via::http::request_receiver"><path codeLine="13" d="M524,231.98 C524,257.85 524,291.6 524,313.77 " fill="none" id="via::http_connection-backto-via::http::request_receiver" style="stroke:#181818;stroke-width:1.0;"/><polygon fill="#181818" points="524,219.33,520,225.33,524,231.33,528,225.33,524,219.33" style="stroke:#181818;stroke-width:1.0;"/></g><!--MD5=[c4c5b5934dffe262392eee3db09f09bc]
reverse link via::http_server to via::comms::server--><g id="link_via::http_server_via::comms::server"><path codeLine="15" d="M406.99,95.4 C398.43,98.69 389.98,102.23 382,106 C343.92,123.97 303.8,151.01 277.29,170.16 " fill="none" id="via::http_server-backto-via::comms::server" style="stroke:#181818;stroke-width:1.0;"/><polygon fill="#181818" points="419.09,90.97,412.0789,89.2836,407.8256,95.1069,414.8368,96.7932,419.09,90.97" style="stroke:#181818;stroke-width:1.0;"/><text fill="#000000" font-family="sans-serif" font-size="13" lengthAdjust="spacing" textLength="5" x="279.7586" y="159.1454">*</text></g><!--MD5=[863b9fe68da94edbca64da0356651df4]
reverse link via::http_connection to via::comms::connection--><g id="link_via::http_connection_via::comms::connection"><path codeLine="16" d="M467.83,224.76 C417.96,251.18 346.06,289.28 300.19,313.58 " fill="none" id="via::http_connection-backto-via::comms::connection" style="stroke:#181818;stroke-width:1.0;"/><polygon fill="#181818" points="479.31,218.68,472.1358,217.9509,468.7036,224.2928,475.8777,225.0219,479.31,218.68" style="stroke:#181818;stroke-width:1.0;"/></g><!--MD5=[d3957b3e7da5cbef99ffd4bc4c690094]
reverse link via::comms::server to via::comms::tcp_acceptor--><g id="link_via::comms::server_via::comms::tcp_acceptor"><path codeLine="28" d="M206.33,226.55 C189.61,239.74 170.19,255.38 153,270 C136.36,284.14 118.18,300.59 104,313.65 " fill="none" id="via::comms::server-backto-via::comms::tcp_acceptor" style="stroke:#181818;stroke-width:1.0;"/><polygon fill="#181818" points="216.21,218.78,209.0205,219.3381,206.7705,226.1892,213.96,225.6311,216.21,218.78" style="stroke:#181818;stroke-width:1.0;"/></g><!--MD5=[6ee57042ed0eba6952fd549e249dd717]
reverse link via::comms::server to via::comms::connection--><g id="link_via::comms::server_via::comms::connection"><path codeLine="29" d="M249.34,231.98 C250.98,257.85 253.12,291.6 254.53,313.77 " fill="none" id="via::comms::server-backto-via::comms::connection" style="stroke:#181818;stroke-width:1.0;"/><polygon fill="none" points="248.54,219.32,244.9233,225.5586,249.291,231.2965,252.9077,225.0579,248.54,219.32" style="stroke:#181818;stroke-width:1.0;"/></g><!--MD5=[2d555cdb023126a871da88fb9f5d035c]
@startuml

'Copyright (c) 2013-2024 Ken Barker

' title via-httplib server classes

set namespaceSeparator ::

namespace via {
    class http_server<socket_type>
    class http_connection<socket_type>

    http_server *- - "*" http_connection
    http_connection *- - via::http::request_receiver

    http_server *- - "*" via::comms::server
    http_connection *- - via::comms::connection
}

namespace via::comms {
    class server<socket_type> 
    class connection<socket_type> 

    note bottom of connection
        **socket_type** is either
        **tcp_socket** or **ssl_socket**
    end note

    server *- - tcp_acceptor
    server o- - connection
}

@enduml

@startuml



set namespaceSeparator ::

namespace via {
    class http_server<socket_type>
    class http_connection<socket_type>

    http_server *- - "*" http_connection
    http_connection *- - via::http::request_receiver

    http_server *- - "*" via::comms::server
    http_connection *- - via::comms::connection
}

namespace via::comms {
    class server<socket_type> 
    class connection<socket_type> 

    note bottom of connection
        **socket_type** is either
        **tcp_socket** or **ssl_socket**
    end note

    server *- - tcp_acceptor
    server o- - connection
}

@enduml

PlantUML version 1.2022.8(Sun Sep 25 10:00:33 BST 2022)
(GPL source distribution)
Java Runtime: Java(TM) SE Runtime Environment
JVM: Java HotSpot(TM) Client VM
Default Encoding: Cp1252
Language: en
Country: GB
--></g></svg>