<?xml version="1.0" encoding="UTF-8" standalone="no"?><svg xmlns="http://www.w3.org/2000/svg" xmlns:xlink="http://www.w3.org/1999/xlink" contentStyleType="text/css" height="339px" preserveAspectRatio="none" style="width:423px;height:339px;background:#FFFFFF;" version="1.1" viewBox="0 0 423 339" width="423px" zoomAndPan="magnify"><defs/><g><!--MD5=[ecb45ce5fe21d5b6825a22ee51409454]
cluster via--><g id="cluster_via"><path d="M115.5,6 L137.5,6 A3.75,3.75 0 0 1 140,8.5 L147,29.6094 L308.5,29.6094 A2.5,2.5 0 0 1 311,32.1094 L311,103.5 A2.5,2.5 0 0 1 308.5,106 L115.5,106 A2.5,2.5 0 0 1 113,103.5 L113,8.5 A2.5,2.5 0 0 1 115.5,6 " fill="none" style="stroke:#000000;stroke-width:1.5;"/><line style="stroke:#000000;stroke-width:1.5;" x1="113" x2="147" y1="29.6094" y2="29.6094"/><text fill="#000000" font-family="sans-serif" font-size="14" font-weight="bold" lengthAdjust="spacing" textLength="21" x="117" y="22.5332">via</text></g><!--MD5=[da356a16bdb2b7476dcbcc4d463ba117]
cluster via::comms--><g id="cluster_via::comms"><path d="M8.5,130 L87.5,130 A3.75,3.75 0 0 1 90,132.5 L97,153.6094 L207.5,153.6094 A2.5,2.5 0 0 1 210,156.1094 L210,330.2 A2.5,2.5 0 0 1 207.5,332.7 L8.5,332.7 A2.5,2.5 0 0 1 6,330.2 L6,132.5 A2.5,2.5 0 0 1 8.5,130 " fill="none" style="stroke:#000000;stroke-width:1.5;"/><line style="stroke:#000000;stroke-width:1.5;" x1="6" x2="97" y1="153.6094" y2="153.6094"/><text fill="#000000" font-family="sans-serif" font-size="14" font-weight="bold" lengthAdjust="spacing" textLength="78" x="10" y="146.5332">via::comms</text></g><!--MD5=[8587418ecdce7e480c702cc07284b200]
cluster via::http--><g id="cluster_via::http"><path d="M236.5,130 L294.5,130 A3.75,3.75 0 0 1 297,132.5 L304,153.6094 L413.5,153.6094 A2.5,2.5 0 0 1 416,156.1094 L416,227.5 A2.5,2.5 0 0 1 413.5,230 L236.5,230 A2.5,2.5 0 0 1 234,227.5 L234,132.5 A2.5,2.5 0 0 1 236.5,130 " fill="none" style="stroke:#000000;stroke-width:1.5;"/><line style="stroke:#000000;stroke-width:1.5;" x1="234" x2="304" y1="153.6094" y2="153.6094"/><text fill="#000000" font-family="sans-serif" font-size="14" font-weight="bold" lengthAdjust="spacing" textLength="57" x="238" y="146.5332">via::http</text></g><!--MD5=[8f915084d82c86a858dc79b930cb8b99]
class via::http_client--><g id="elem_via::http_client"><rect codeLine="9" fill="#F1F1F1" height="48" id="via::http_client" rx="2.5" ry="2.5" style="stroke:#181818;stroke-width:0.5;" width="167" x="128.5" y="42"/><ellipse cx="143.5" cy="58" fill="#ADD1B2" rx="11" ry="11" style="stroke:#181818;stroke-width:1.0;"/><path d="M146.2656,53.875 Q146.4219,53.6563 146.6094,53.5469 Q146.7969,53.4375 147.0156,53.4375 Q147.3906,53.4375 147.625,53.6953 Q147.8594,53.9531 147.8594,54.5625 L147.8594,56.0156 Q147.8594,56.625 147.625,56.8906 Q147.3906,57.1563 147.0156,57.1563 Q146.6719,57.1563 146.4688,56.9531 Q146.2656,56.7656 146.1563,56.25 Q146.1094,55.8906 145.9219,55.7031 Q145.5938,55.3281 144.9844,55.1094 Q144.375,54.8906 143.75,54.8906 Q142.9844,54.8906 142.3516,55.2188 Q141.7188,55.5469 141.2266,56.2969 Q140.7344,57.0469 140.7344,58.0781 L140.7344,59.1719 Q140.7344,60.4063 141.625,61.2266 Q142.5156,62.0469 144.1094,62.0469 Q145.0469,62.0469 145.7031,61.7969 Q146.0938,61.6406 146.5156,61.2031 Q146.7813,60.9375 146.9297,60.8594 Q147.0781,60.7813 147.2813,60.7813 Q147.6094,60.7813 147.8672,61.0391 Q148.125,61.2969 148.125,61.6406 Q148.125,61.9844 147.7813,62.3906 Q147.2813,62.9688 146.4844,63.2969 Q145.4063,63.75 144.1094,63.75 Q142.5938,63.75 141.3906,63.125 Q140.4063,62.625 139.7188,61.5547 Q139.0313,60.4844 139.0313,59.2031 L139.0313,58.0469 Q139.0313,56.7188 139.6484,55.5703 Q140.2656,54.4219 141.3594,53.8047 Q142.4531,53.1875 143.6875,53.1875 Q144.4219,53.1875 145.0703,53.3516 Q145.7188,53.5156 146.2656,53.875 Z " fill="#000000"/><text fill="#000000" font-family="sans-serif" font-size="14" lengthAdjust="spacing" textLength="65" x="157.5" y="63.7285">http_client</text><rect fill="#FFFFFF" height="17.0938" style="stroke:#181818;stroke-width:1.0;stroke-dasharray:2.0,2.0;" width="68" x="230.5" y="39"/><text fill="#000000" font-family="sans-serif" font-size="12" font-style="italic" lengthAdjust="spacing" textLength="66" x="231.5" y="52.457">socket_type</text><line style="stroke:#181818;stroke-width:0.5;" x1="129.5" x2="294.5" y1="74" y2="74"/><line style="stroke:#181818;stroke-width:0.5;" x1="129.5" x2="294.5" y1="82" y2="82"/></g><!--MD5=[efc0e54c63629b61746ab7f1253be7d5]
class via::comms::connection--><g id="elem_via::comms::connection"><rect codeLine="16" fill="#F1F1F1" height="48" id="via::comms::connection" rx="2.5" ry="2.5" style="stroke:#181818;stroke-width:0.5;" width="171" x="22.5" y="166"/><ellipse cx="37.5" cy="182" fill="#ADD1B2" rx="11" ry="11" style="stroke:#181818;stroke-width:1.0;"/><path d="M40.2656,177.875 Q40.4219,177.6563 40.6094,177.5469 Q40.7969,177.4375 41.0156,177.4375 Q41.3906,177.4375 41.625,177.6953 Q41.8594,177.9531 41.8594,178.5625 L41.8594,180.0156 Q41.8594,180.625 41.625,180.8906 Q41.3906,181.1563 41.0156,181.1563 Q40.6719,181.1563 40.4688,180.9531 Q40.2656,180.7656 40.1563,180.25 Q40.1094,179.8906 39.9219,179.7031 Q39.5938,179.3281 38.9844,179.1094 Q38.375,178.8906 37.75,178.8906 Q36.9844,178.8906 36.3516,179.2188 Q35.7188,179.5469 35.2266,180.2969 Q34.7344,181.0469 34.7344,182.0781 L34.7344,183.1719 Q34.7344,184.4063 35.625,185.2266 Q36.5156,186.0469 38.1094,186.0469 Q39.0469,186.0469 39.7031,185.7969 Q40.0938,185.6406 40.5156,185.2031 Q40.7813,184.9375 40.9297,184.8594 Q41.0781,184.7813 41.2813,184.7813 Q41.6094,184.7813 41.8672,185.0391 Q42.125,185.2969 42.125,185.6406 Q42.125,185.9844 41.7813,186.3906 Q41.2813,186.9688 40.4844,187.2969 Q39.4063,187.75 38.1094,187.75 Q36.5938,187.75 35.3906,187.125 Q34.4063,186.625 33.7188,185.5547 Q33.0313,184.4844 33.0313,183.2031 L33.0313,182.0469 Q33.0313,180.7188 33.6484,179.5703 Q34.2656,178.4219 35.3594,177.8047 Q36.4531,177.1875 37.6875,177.1875 Q38.4219,177.1875 39.0703,177.3516 Q39.7188,177.5156 40.2656,177.875 Z " fill="#000000"/><text fill="#000000" font-family="sans-serif" font-size="14" lengthAdjust="spacing" textLength="69" x="51.5" y="187.7285">connection</text><rect fill="#FFFFFF" height="17.0938" style="stroke:#181818;stroke-width:1.0;stroke-dasharray:2.0,2.0;" width="68" x="128.5" y="163"/><text fill="#000000" font-family="sans-serif" font-size="12" font-style="italic" lengthAdjust="spacing" textLength="66" x="129.5" y="176.457">socket_type</text><line style="stroke:#181818;stroke-width:0.5;" x1="23.5" x2="192.5" y1="198" y2="198"/><line style="stroke:#181818;stroke-width:0.5;" x1="23.5" x2="192.5" y1="206" y2="206"/></g><g id="elem_via::comms::GMN10"><path d="M23.5,274 L23.5,316.7031 A0,0 0 0 0 23.5,316.7031 L192.5,316.7031 A0,0 0 0 0 192.5,316.7031 L192.5,284 L182.5,274 L112,274 L108,214.45 L104,274 L23.5,274 A0,0 0 0 0 23.5,274 " fill="#FEFFDD" style="stroke:#181818;stroke-width:0.5;"/><path d="M182.5,274 L182.5,284 L192.5,284 L182.5,274 " fill="#FEFFDD" style="stroke:#181818;stroke-width:0.5;"/><text fill="#000000" font-family="sans-serif" font-size="13" font-weight="bold" lengthAdjust="spacing" textLength="74" x="29.5" y="292.4951">socket_type</text><text fill="#000000" font-family="sans-serif" font-size="13" lengthAdjust="spacing" textLength="46" x="107.5" y="292.4951">is either</text><text fill="#000000" font-family="sans-serif" font-size="13" font-weight="bold" lengthAdjust="spacing" textLength="66" x="29.5" y="308.8467">tcp_socket</text><text fill="#000000" font-family="sans-serif" font-size="13" lengthAdjust="spacing" textLength="11" x="99.5" y="308.8467">or</text><text fill="#000000" font-family="sans-serif" font-size="13" font-weight="bold" lengthAdjust="spacing" textLength="63" x="114.5" y="308.8467">ssl_socket</text></g><!--MD5=[0a8e87436b1918b00f3ac62bb2e1baf6]
class via::http::response_receiver--><g id="elem_via::http::response_receiver"><rect fill="#F1F1F1" height="48" id="via::http::response_receiver" rx="2.5" ry="2.5" style="stroke:#181818;stroke-width:0.5;" width="150" x="250" y="166"/><ellipse cx="265" cy="182" fill="#ADD1B2" rx="11" ry="11" style="stroke:#181818;stroke-width:1.0;"/><path d="M267.7656,177.875 Q267.9219,177.6563 268.1094,177.5469 Q268.2969,177.4375 268.5156,177.4375 Q268.8906,177.4375 269.125,177.6953 Q269.3594,177.9531 269.3594,178.5625 L269.3594,180.0156 Q269.3594,180.625 269.125,180.8906 Q268.8906,181.1563 268.5156,181.1563 Q268.1719,181.1563 267.9688,180.9531 Q267.7656,180.7656 267.6563,180.25 Q267.6094,179.8906 267.4219,179.7031 Q267.0938,179.3281 266.4844,179.1094 Q265.875,178.8906 265.25,178.8906 Q264.4844,178.8906 263.8516,179.2188 Q263.2188,179.5469 262.7266,180.2969 Q262.2344,181.0469 262.2344,182.0781 L262.2344,183.1719 Q262.2344,184.4063 263.125,185.2266 Q264.0156,186.0469 265.6094,186.0469 Q266.5469,186.0469 267.2031,185.7969 Q267.5938,185.6406 268.0156,185.2031 Q268.2813,184.9375 268.4297,184.8594 Q268.5781,184.7813 268.7813,184.7813 Q269.1094,184.7813 269.3672,185.0391 Q269.625,185.2969 269.625,185.6406 Q269.625,185.9844 269.2813,186.3906 Q268.7813,186.9688 267.9844,187.2969 Q266.9063,187.75 265.6094,187.75 Q264.0938,187.75 262.8906,187.125 Q261.9063,186.625 261.2188,185.5547 Q260.5313,184.4844 260.5313,183.2031 L260.5313,182.0469 Q260.5313,180.7188 261.1484,179.5703 Q261.7656,178.4219 262.8594,177.8047 Q263.9531,177.1875 265.1875,177.1875 Q265.9219,177.1875 266.5703,177.3516 Q267.2188,177.5156 267.7656,177.875 Z " fill="#000000"/><text fill="#000000" font-family="sans-serif" font-size="14" lengthAdjust="spacing" textLength="118" x="279" y="187.7285">response_receiver</text><line style="stroke:#181818;stroke-width:0.5;" x1="251" x2="399" y1="198" y2="198"/><line style="stroke:#181818;stroke-width:0.5;" x1="251" x2="399" y1="206" y2="206"/></g><!--MD5=[383c7f3fcba07840ae2272a994d69e77]
reverse link via::http_client to via::comms::connection--><g id="link_via::http_client_via::comms::connection"><path codeLine="11" d="M182.93,101.1 C165.32,121.75 143.33,147.56 127.73,165.85 " fill="none" id="via::http_client-backto-via::comms::connection" style="stroke:#181818;stroke-width:1.0;"/><polygon fill="#181818" points="191.21,91.38,184.2717,93.3448,183.4168,100.505,190.3551,98.5402,191.21,91.38" style="stroke:#181818;stroke-width:1.0;"/></g><!--MD5=[3ddd9d8455ea2c6be27a164524275cce]
reverse link via::http_client to via::http::response_receiver--><g id="link_via::http_client_via::http::response_receiver"><path codeLine="12" d="M243.32,100.81 C262.5,121.51 286.54,147.47 303.56,165.85 " fill="none" id="via::http_client-backto-via::http::response_receiver" style="stroke:#181818;stroke-width:1.0;"/><polygon fill="#181818" points="234.55,91.34,235.6884,98.4607,242.6992,100.1485,241.5608,93.0279,234.55,91.34" style="stroke:#181818;stroke-width:1.0;"/></g><!--MD5=[04bb0011f9b470ef46322e41651cf0ba]
@startuml

'Copyright (c) 2013-2024 Ken Barker

' title via-httplib client classes

set namespaceSeparator ::

namespace via {
    class http_client<socket_type>

    http_client *- - via::comms::connection
    http_client *- - via::http::response_receiver
}

namespace via::comms {
    class connection<socket_type> 

    note bottom of connection
        **socket_type** is either
        **tcp_socket** or **ssl_socket**
    end note
}

@enduml

@startuml



set namespaceSeparator ::

namespace via {
    class http_client<socket_type>

    http_client *- - via::comms::connection
    http_client *- - via::http::response_receiver
}

namespace via::comms {
    class connection<socket_type> 

    note bottom of connection
        **socket_type** is either
        **tcp_socket** or **ssl_socket**
    end note
}

@enduml

PlantUML version 1.2022.8(Sun Sep 25 10:00:33 BST 2022)
(GPL source distribution)
Java Runtime: Java(TM) SE Runtime Environment
JVM: Java HotSpot(TM) Client VM
Default Encoding: Cp1252
Language: en
Country: GB
--></g></svg>