<?xml version="1.0" encoding="UTF-8" standalone="no"?><svg xmlns="http://www.w3.org/2000/svg" xmlns:xlink="http://www.w3.org/1999/xlink" contentStyleType="text/css" height="517px" preserveAspectRatio="none" style="width:1001px;height:517px;background:#FFFFFF;" version="1.1" viewBox="0 0 1001 517" width="1001px" zoomAndPan="magnify"><defs/><g><!--MD5=[ecb45ce5fe21d5b6825a22ee51409454]
cluster via--><g id="cluster_via"><path d="M432.5,6 L454.5,6 A3.75,3.75 0 0 1 457,8.5 L464,29.6094 L834.5,29.6094 A2.5,2.5 0 0 1 837,32.1094 L837,251.5 A2.5,2.5 0 0 1 834.5,254 L432.5,254 A2.5,2.5 0 0 1 430,251.5 L430,8.5 A2.5,2.5 0 0 1 432.5,6 " fill="none" style="stroke:#000000;stroke-width:1.5;"/><line style="stroke:#000000;stroke-width:1.5;" x1="430" x2="464" y1="29.6094" y2="29.6094"/><text fill="#000000" font-family="sans-serif" font-size="14" font-weight="bold" lengthAdjust="spacing" textLength="21" x="434" y="22.5332">via</text></g><!--MD5=[da356a16bdb2b7476dcbcc4d463ba117]
cluster via::comms--><g id="cluster_via::comms"><path d="M8.5,134 L87.5,134 A3.75,3.75 0 0 1 90,136.5 L97,157.6094 L403.5,157.6094 A2.5,2.5 0 0 1 406,160.1094 L406,504.85 A2.5,2.5 0 0 1 403.5,507.35 L8.5,507.35 A2.5,2.5 0 0 1 6,504.85 L6,136.5 A2.5,2.5 0 0 1 8.5,134 " fill="none" style="stroke:#000000;stroke-width:1.5;"/><line style="stroke:#000000;stroke-width:1.5;" x1="6" x2="97" y1="157.6094" y2="157.6094"/><text fill="#000000" font-family="sans-serif" font-size="14" font-weight="bold" lengthAdjust="spacing" textLength="78" x="10" y="150.5332">via::comms</text></g><!--MD5=[8587418ecdce7e480c702cc07284b200]
cluster via::http--><g id="cluster_via::http"><path d="M432.5,282 L490.5,282 A3.75,3.75 0 0 1 493,284.5 L500,305.6094 L991.5,305.6094 A2.5,2.5 0 0 1 994,308.1094 L994,507.5 A2.5,2.5 0 0 1 991.5,510 L432.5,510 A2.5,2.5 0 0 1 430,507.5 L430,284.5 A2.5,2.5 0 0 1 432.5,282 " fill="none" style="stroke:#000000;stroke-width:1.5;"/><line style="stroke:#000000;stroke-width:1.5;" x1="430" x2="500" y1="305.6094" y2="305.6094"/><text fill="#000000" font-family="sans-serif" font-size="14" font-weight="bold" lengthAdjust="spacing" textLength="57" x="434" y="298.5332">via::http</text></g><!--MD5=[0625d55a53f232cfc497c82459814f5e]
class via::http_server--><g id="elem_via::http_server"><rect codeLine="9" fill="#F1F1F1" height="48" id="via::http_server" rx="2.5" ry="2.5" style="stroke:#181818;stroke-width:0.5;" width="174" x="446" y="42"/><ellipse cx="461" cy="58" fill="#ADD1B2" rx="11" ry="11" style="stroke:#181818;stroke-width:1.0;"/><path d="M463.7656,53.875 Q463.9219,53.6563 464.1094,53.5469 Q464.2969,53.4375 464.5156,53.4375 Q464.8906,53.4375 465.125,53.6953 Q465.3594,53.9531 465.3594,54.5625 L465.3594,56.0156 Q465.3594,56.625 465.125,56.8906 Q464.8906,57.1563 464.5156,57.1563 Q464.1719,57.1563 463.9688,56.9531 Q463.7656,56.7656 463.6563,56.25 Q463.6094,55.8906 463.4219,55.7031 Q463.0938,55.3281 462.4844,55.1094 Q461.875,54.8906 461.25,54.8906 Q460.4844,54.8906 459.8516,55.2188 Q459.2188,55.5469 458.7266,56.2969 Q458.2344,57.0469 458.2344,58.0781 L458.2344,59.1719 Q458.2344,60.4063 459.125,61.2266 Q460.0156,62.0469 461.6094,62.0469 Q462.5469,62.0469 463.2031,61.7969 Q463.5938,61.6406 464.0156,61.2031 Q464.2813,60.9375 464.4297,60.8594 Q464.5781,60.7813 464.7813,60.7813 Q465.1094,60.7813 465.3672,61.0391 Q465.625,61.2969 465.625,61.6406 Q465.625,61.9844 465.2813,62.3906 Q464.7813,62.9688 463.9844,63.2969 Q462.9063,63.75 461.6094,63.75 Q460.0938,63.75 458.8906,63.125 Q457.9063,62.625 457.2188,61.5547 Q456.5313,60.4844 456.5313,59.2031 L456.5313,58.0469 Q456.5313,56.7188 457.1484,55.5703 Q457.7656,54.4219 458.8594,53.8047 Q459.9531,53.1875 461.1875,53.1875 Q461.9219,53.1875 462.5703,53.3516 Q463.2188,53.5156 463.7656,53.875 Z " fill="#000000"/><text fill="#000000" font-family="sans-serif" font-size="14" lengthAdjust="spacing" textLength="72" x="475" y="63.7285">http_server</text><rect fill="#FFFFFF" height="17.0938" style="stroke:#181818;stroke-width:1.0;stroke-dasharray:2.0,2.0;" width="68" x="555" y="39"/><text fill="#000000" font-family="sans-serif" font-size="12" font-style="italic" lengthAdjust="spacing" textLength="66" x="556" y="52.457">socket_type</text><line style="stroke:#181818;stroke-width:0.5;" x1="447" x2="619" y1="74" y2="74"/><line style="stroke:#181818;stroke-width:0.5;" x1="447" x2="619" y1="82" y2="82"/></g><!--MD5=[23bde6fb47da3c644129181c53d31875]
class via::http_connection--><g id="elem_via::http_connection"><rect codeLine="10" fill="#F1F1F1" height="48" id="via::http_connection" rx="2.5" ry="2.5" style="stroke:#181818;stroke-width:0.5;" width="203" x="470.5" y="170"/><ellipse cx="485.5" cy="186" fill="#ADD1B2" rx="11" ry="11" style="stroke:#181818;stroke-width:1.0;"/><path d="M488.2656,181.875 Q488.4219,181.6563 488.6094,181.5469 Q488.7969,181.4375 489.0156,181.4375 Q489.3906,181.4375 489.625,181.6953 Q489.8594,181.9531 489.8594,182.5625 L489.8594,184.0156 Q489.8594,184.625 489.625,184.8906 Q489.3906,185.1563 489.0156,185.1563 Q488.6719,185.1563 488.4688,184.9531 Q488.2656,184.7656 488.1563,184.25 Q488.1094,183.8906 487.9219,183.7031 Q487.5938,183.3281 486.9844,183.1094 Q486.375,182.8906 485.75,182.8906 Q484.9844,182.8906 484.3516,183.2188 Q483.7188,183.5469 483.2266,184.2969 Q482.7344,185.0469 482.7344,186.0781 L482.7344,187.1719 Q482.7344,188.4063 483.625,189.2266 Q484.5156,190.0469 486.1094,190.0469 Q487.0469,190.0469 487.7031,189.7969 Q488.0938,189.6406 488.5156,189.2031 Q488.7813,188.9375 488.9297,188.8594 Q489.0781,188.7813 489.2813,188.7813 Q489.6094,188.7813 489.8672,189.0391 Q490.125,189.2969 490.125,189.6406 Q490.125,189.9844 489.7813,190.3906 Q489.2813,190.9688 488.4844,191.2969 Q487.4063,191.75 486.1094,191.75 Q484.5938,191.75 483.3906,191.125 Q482.4063,190.625 481.7188,189.5547 Q481.0313,188.4844 481.0313,187.2031 L481.0313,186.0469 Q481.0313,184.7188 481.6484,183.5703 Q482.2656,182.4219 483.3594,181.8047 Q484.4531,181.1875 485.6875,181.1875 Q486.4219,181.1875 487.0703,181.3516 Q487.7188,181.5156 488.2656,181.875 Z " fill="#000000"/><text fill="#000000" font-family="sans-serif" font-size="14" lengthAdjust="spacing" textLength="101" x="499.5" y="191.7285">http_connection</text><rect fill="#FFFFFF" height="17.0938" style="stroke:#181818;stroke-width:1.0;stroke-dasharray:2.0,2.0;" width="68" x="608.5" y="167"/><text fill="#000000" font-family="sans-serif" font-size="12" font-style="italic" lengthAdjust="spacing" textLength="66" x="609.5" y="180.457">socket_type</text><line style="stroke:#181818;stroke-width:0.5;" x1="471.5" x2="672.5" y1="202" y2="202"/><line style="stroke:#181818;stroke-width:0.5;" x1="471.5" x2="672.5" y1="210" y2="210"/></g><!--MD5=[8f915084d82c86a858dc79b930cb8b99]
class via::http_client--><g id="elem_via::http_client"><rect codeLine="11" fill="#F1F1F1" height="48" id="via::http_client" rx="2.5" ry="2.5" style="stroke:#181818;stroke-width:0.5;" width="167" x="654.5" y="42"/><ellipse cx="669.5" cy="58" fill="#ADD1B2" rx="11" ry="11" style="stroke:#181818;stroke-width:1.0;"/><path d="M672.2656,53.875 Q672.4219,53.6563 672.6094,53.5469 Q672.7969,53.4375 673.0156,53.4375 Q673.3906,53.4375 673.625,53.6953 Q673.8594,53.9531 673.8594,54.5625 L673.8594,56.0156 Q673.8594,56.625 673.625,56.8906 Q673.3906,57.1563 673.0156,57.1563 Q672.6719,57.1563 672.4688,56.9531 Q672.2656,56.7656 672.1563,56.25 Q672.1094,55.8906 671.9219,55.7031 Q671.5938,55.3281 670.9844,55.1094 Q670.375,54.8906 669.75,54.8906 Q668.9844,54.8906 668.3516,55.2188 Q667.7188,55.5469 667.2266,56.2969 Q666.7344,57.0469 666.7344,58.0781 L666.7344,59.1719 Q666.7344,60.4063 667.625,61.2266 Q668.5156,62.0469 670.1094,62.0469 Q671.0469,62.0469 671.7031,61.7969 Q672.0938,61.6406 672.5156,61.2031 Q672.7813,60.9375 672.9297,60.8594 Q673.0781,60.7813 673.2813,60.7813 Q673.6094,60.7813 673.8672,61.0391 Q674.125,61.2969 674.125,61.6406 Q674.125,61.9844 673.7813,62.3906 Q673.2813,62.9688 672.4844,63.2969 Q671.4063,63.75 670.1094,63.75 Q668.5938,63.75 667.3906,63.125 Q666.4063,62.625 665.7188,61.5547 Q665.0313,60.4844 665.0313,59.2031 L665.0313,58.0469 Q665.0313,56.7188 665.6484,55.5703 Q666.2656,54.4219 667.3594,53.8047 Q668.4531,53.1875 669.6875,53.1875 Q670.4219,53.1875 671.0703,53.3516 Q671.7188,53.5156 672.2656,53.875 Z " fill="#000000"/><text fill="#000000" font-family="sans-serif" font-size="14" lengthAdjust="spacing" textLength="65" x="683.5" y="63.7285">http_client</text><rect fill="#FFFFFF" height="17.0938" style="stroke:#181818;stroke-width:1.0;stroke-dasharray:2.0,2.0;" width="68" x="756.5" y="39"/><text fill="#000000" font-family="sans-serif" font-size="12" font-style="italic" lengthAdjust="spacing" textLength="66" x="757.5" y="52.457">socket_type</text><line style="stroke:#181818;stroke-width:0.5;" x1="655.5" x2="820.5" y1="74" y2="74"/><line style="stroke:#181818;stroke-width:0.5;" x1="655.5" x2="820.5" y1="82" y2="82"/></g><!--MD5=[c1e0eb6d8db4f04fd6afacb7baaccaeb]
class via::comms::server--><g id="elem_via::comms::server"><rect codeLine="37" fill="#F1F1F1" height="48" id="via::comms::server" rx="2.5" ry="2.5" style="stroke:#181818;stroke-width:0.5;" width="142" x="198" y="170"/><ellipse cx="213" cy="186" fill="#ADD1B2" rx="11" ry="11" style="stroke:#181818;stroke-width:1.0;"/><path d="M215.7656,181.875 Q215.9219,181.6563 216.1094,181.5469 Q216.2969,181.4375 216.5156,181.4375 Q216.8906,181.4375 217.125,181.6953 Q217.3594,181.9531 217.3594,182.5625 L217.3594,184.0156 Q217.3594,184.625 217.125,184.8906 Q216.8906,185.1563 216.5156,185.1563 Q216.1719,185.1563 215.9688,184.9531 Q215.7656,184.7656 215.6563,184.25 Q215.6094,183.8906 215.4219,183.7031 Q215.0938,183.3281 214.4844,183.1094 Q213.875,182.8906 213.25,182.8906 Q212.4844,182.8906 211.8516,183.2188 Q211.2188,183.5469 210.7266,184.2969 Q210.2344,185.0469 210.2344,186.0781 L210.2344,187.1719 Q210.2344,188.4063 211.125,189.2266 Q212.0156,190.0469 213.6094,190.0469 Q214.5469,190.0469 215.2031,189.7969 Q215.5938,189.6406 216.0156,189.2031 Q216.2813,188.9375 216.4297,188.8594 Q216.5781,188.7813 216.7813,188.7813 Q217.1094,188.7813 217.3672,189.0391 Q217.625,189.2969 217.625,189.6406 Q217.625,189.9844 217.2813,190.3906 Q216.7813,190.9688 215.9844,191.2969 Q214.9063,191.75 213.6094,191.75 Q212.0938,191.75 210.8906,191.125 Q209.9063,190.625 209.2188,189.5547 Q208.5313,188.4844 208.5313,187.2031 L208.5313,186.0469 Q208.5313,184.7188 209.1484,183.5703 Q209.7656,182.4219 210.8594,181.8047 Q211.9531,181.1875 213.1875,181.1875 Q213.9219,181.1875 214.5703,181.3516 Q215.2188,181.5156 215.7656,181.875 Z " fill="#000000"/><text fill="#000000" font-family="sans-serif" font-size="14" lengthAdjust="spacing" textLength="40" x="227" y="191.7285">server</text><rect fill="#FFFFFF" height="17.0938" style="stroke:#181818;stroke-width:1.0;stroke-dasharray:2.0,2.0;" width="68" x="275" y="167"/><text fill="#000000" font-family="sans-serif" font-size="12" font-style="italic" lengthAdjust="spacing" textLength="66" x="276" y="180.457">socket_type</text><line style="stroke:#181818;stroke-width:0.5;" x1="199" x2="339" y1="202" y2="202"/><line style="stroke:#181818;stroke-width:0.5;" x1="199" x2="339" y1="210" y2="210"/></g><!--MD5=[efc0e54c63629b61746ab7f1253be7d5]
class via::comms::connection--><g id="elem_via::comms::connection"><rect codeLine="38" fill="#F1F1F1" height="48" id="via::comms::connection" rx="2.5" ry="2.5" style="stroke:#181818;stroke-width:0.5;" width="171" x="194.5" y="318"/><ellipse cx="209.5" cy="334" fill="#ADD1B2" rx="11" ry="11" style="stroke:#181818;stroke-width:1.0;"/><path d="M212.2656,329.875 Q212.4219,329.6563 212.6094,329.5469 Q212.7969,329.4375 213.0156,329.4375 Q213.3906,329.4375 213.625,329.6953 Q213.8594,329.9531 213.8594,330.5625 L213.8594,332.0156 Q213.8594,332.625 213.625,332.8906 Q213.3906,333.1563 213.0156,333.1563 Q212.6719,333.1563 212.4688,332.9531 Q212.2656,332.7656 212.1563,332.25 Q212.1094,331.8906 211.9219,331.7031 Q211.5938,331.3281 210.9844,331.1094 Q210.375,330.8906 209.75,330.8906 Q208.9844,330.8906 208.3516,331.2188 Q207.7188,331.5469 207.2266,332.2969 Q206.7344,333.0469 206.7344,334.0781 L206.7344,335.1719 Q206.7344,336.4063 207.625,337.2266 Q208.5156,338.0469 210.1094,338.0469 Q211.0469,338.0469 211.7031,337.7969 Q212.0938,337.6406 212.5156,337.2031 Q212.7813,336.9375 212.9297,336.8594 Q213.0781,336.7813 213.2813,336.7813 Q213.6094,336.7813 213.8672,337.0391 Q214.125,337.2969 214.125,337.6406 Q214.125,337.9844 213.7813,338.3906 Q213.2813,338.9688 212.4844,339.2969 Q211.4063,339.75 210.1094,339.75 Q208.5938,339.75 207.3906,339.125 Q206.4063,338.625 205.7188,337.5547 Q205.0313,336.4844 205.0313,335.2031 L205.0313,334.0469 Q205.0313,332.7188 205.6484,331.5703 Q206.2656,330.4219 207.3594,329.8047 Q208.4531,329.1875 209.6875,329.1875 Q210.4219,329.1875 211.0703,329.3516 Q211.7188,329.5156 212.2656,329.875 Z " fill="#000000"/><text fill="#000000" font-family="sans-serif" font-size="14" lengthAdjust="spacing" textLength="69" x="223.5" y="339.7285">connection</text><rect fill="#FFFFFF" height="17.0938" style="stroke:#181818;stroke-width:1.0;stroke-dasharray:2.0,2.0;" width="68" x="300.5" y="315"/><text fill="#000000" font-family="sans-serif" font-size="12" font-style="italic" lengthAdjust="spacing" textLength="66" x="301.5" y="328.457">socket_type</text><line style="stroke:#181818;stroke-width:0.5;" x1="195.5" x2="364.5" y1="350" y2="350"/><line style="stroke:#181818;stroke-width:0.5;" x1="195.5" x2="364.5" y1="358" y2="358"/></g><g id="elem_via::comms::GMN31"><path d="M195.5,448.65 L195.5,491.3531 A0,0 0 0 0 195.5,491.3531 L364.5,491.3531 A0,0 0 0 0 364.5,491.3531 L364.5,458.65 L354.5,448.65 L284,448.65 L280,365.82 L276,448.65 L195.5,448.65 A0,0 0 0 0 195.5,448.65 " fill="#FEFFDD" style="stroke:#181818;stroke-width:0.5;"/><path d="M354.5,448.65 L354.5,458.65 L364.5,458.65 L354.5,448.65 " fill="#FEFFDD" style="stroke:#181818;stroke-width:0.5;"/><text fill="#000000" font-family="sans-serif" font-size="13" font-weight="bold" lengthAdjust="spacing" textLength="74" x="201.5" y="467.1451">socket_type</text><text fill="#000000" font-family="sans-serif" font-size="13" lengthAdjust="spacing" textLength="46" x="279.5" y="467.1451">is either</text><text fill="#000000" font-family="sans-serif" font-size="13" font-weight="bold" lengthAdjust="spacing" textLength="66" x="201.5" y="483.4967">tcp_socket</text><text fill="#000000" font-family="sans-serif" font-size="13" lengthAdjust="spacing" textLength="11" x="271.5" y="483.4967">or</text><text fill="#000000" font-family="sans-serif" font-size="13" font-weight="bold" lengthAdjust="spacing" textLength="63" x="286.5" y="483.4967">ssl_socket</text></g><!--MD5=[f737f936924cb6c9e160fa12100208dd]
class via::comms::tcp_acceptor--><g id="elem_via::comms::tcp_acceptor"><rect fill="#F1F1F1" height="48" id="via::comms::tcp_acceptor" rx="2.5" ry="2.5" style="stroke:#181818;stroke-width:0.5;" width="114" x="22" y="318"/><ellipse cx="37" cy="334" fill="#ADD1B2" rx="11" ry="11" style="stroke:#181818;stroke-width:1.0;"/><path d="M39.7656,329.875 Q39.9219,329.6563 40.1094,329.5469 Q40.2969,329.4375 40.5156,329.4375 Q40.8906,329.4375 41.125,329.6953 Q41.3594,329.9531 41.3594,330.5625 L41.3594,332.0156 Q41.3594,332.625 41.125,332.8906 Q40.8906,333.1563 40.5156,333.1563 Q40.1719,333.1563 39.9688,332.9531 Q39.7656,332.7656 39.6563,332.25 Q39.6094,331.8906 39.4219,331.7031 Q39.0938,331.3281 38.4844,331.1094 Q37.875,330.8906 37.25,330.8906 Q36.4844,330.8906 35.8516,331.2188 Q35.2188,331.5469 34.7266,332.2969 Q34.2344,333.0469 34.2344,334.0781 L34.2344,335.1719 Q34.2344,336.4063 35.125,337.2266 Q36.0156,338.0469 37.6094,338.0469 Q38.5469,338.0469 39.2031,337.7969 Q39.5938,337.6406 40.0156,337.2031 Q40.2813,336.9375 40.4297,336.8594 Q40.5781,336.7813 40.7813,336.7813 Q41.1094,336.7813 41.3672,337.0391 Q41.625,337.2969 41.625,337.6406 Q41.625,337.9844 41.2813,338.3906 Q40.7813,338.9688 39.9844,339.2969 Q38.9063,339.75 37.6094,339.75 Q36.0938,339.75 34.8906,339.125 Q33.9063,338.625 33.2188,337.5547 Q32.5313,336.4844 32.5313,335.2031 L32.5313,334.0469 Q32.5313,332.7188 33.1484,331.5703 Q33.7656,330.4219 34.8594,329.8047 Q35.9531,329.1875 37.1875,329.1875 Q37.9219,329.1875 38.5703,329.3516 Q39.2188,329.5156 39.7656,329.875 Z " fill="#000000"/><text fill="#000000" font-family="sans-serif" font-size="14" lengthAdjust="spacing" textLength="82" x="51" y="339.7285">tcp_acceptor</text><line style="stroke:#181818;stroke-width:0.5;" x1="23" x2="135" y1="350" y2="350"/><line style="stroke:#181818;stroke-width:0.5;" x1="23" x2="135" y1="358" y2="358"/></g><!--MD5=[9a79e95e65ca5a4f051e82bd5837953b]
class via::http::request--><g id="elem_via::http::request"><rect fill="#F1F1F1" height="48" id="via::http::request" rx="2.5" ry="2.5" style="stroke:#181818;stroke-width:0.5;" width="80" x="653" y="318"/><ellipse cx="668" cy="334" fill="#ADD1B2" rx="11" ry="11" style="stroke:#181818;stroke-width:1.0;"/><path d="M670.7656,329.875 Q670.9219,329.6563 671.1094,329.5469 Q671.2969,329.4375 671.5156,329.4375 Q671.8906,329.4375 672.125,329.6953 Q672.3594,329.9531 672.3594,330.5625 L672.3594,332.0156 Q672.3594,332.625 672.125,332.8906 Q671.8906,333.1563 671.5156,333.1563 Q671.1719,333.1563 670.9688,332.9531 Q670.7656,332.7656 670.6563,332.25 Q670.6094,331.8906 670.4219,331.7031 Q670.0938,331.3281 669.4844,331.1094 Q668.875,330.8906 668.25,330.8906 Q667.4844,330.8906 666.8516,331.2188 Q666.2188,331.5469 665.7266,332.2969 Q665.2344,333.0469 665.2344,334.0781 L665.2344,335.1719 Q665.2344,336.4063 666.125,337.2266 Q667.0156,338.0469 668.6094,338.0469 Q669.5469,338.0469 670.2031,337.7969 Q670.5938,337.6406 671.0156,337.2031 Q671.2813,336.9375 671.4297,336.8594 Q671.5781,336.7813 671.7813,336.7813 Q672.1094,336.7813 672.3672,337.0391 Q672.625,337.2969 672.625,337.6406 Q672.625,337.9844 672.2813,338.3906 Q671.7813,338.9688 670.9844,339.2969 Q669.9063,339.75 668.6094,339.75 Q667.0938,339.75 665.8906,339.125 Q664.9063,338.625 664.2188,337.5547 Q663.5313,336.4844 663.5313,335.2031 L663.5313,334.0469 Q663.5313,332.7188 664.1484,331.5703 Q664.7656,330.4219 665.8594,329.8047 Q666.9531,329.1875 668.1875,329.1875 Q668.9219,329.1875 669.5703,329.3516 Q670.2188,329.5156 670.7656,329.875 Z " fill="#000000"/><text fill="#000000" font-family="sans-serif" font-size="14" lengthAdjust="spacing" textLength="48" x="682" y="339.7285">request</text><line style="stroke:#181818;stroke-width:0.5;" x1="654" x2="732" y1="350" y2="350"/><line style="stroke:#181818;stroke-width:0.5;" x1="654" x2="732" y1="358" y2="358"/></g><!--MD5=[398e776b3866c63ad0bf49a35294dd5a]
class via::http::response--><g id="elem_via::http::response"><rect fill="#F1F1F1" height="48" id="via::http::response" rx="2.5" ry="2.5" style="stroke:#181818;stroke-width:0.5;" width="91" x="776.5" y="318"/><ellipse cx="791.5" cy="334" fill="#ADD1B2" rx="11" ry="11" style="stroke:#181818;stroke-width:1.0;"/><path d="M794.2656,329.875 Q794.4219,329.6563 794.6094,329.5469 Q794.7969,329.4375 795.0156,329.4375 Q795.3906,329.4375 795.625,329.6953 Q795.8594,329.9531 795.8594,330.5625 L795.8594,332.0156 Q795.8594,332.625 795.625,332.8906 Q795.3906,333.1563 795.0156,333.1563 Q794.6719,333.1563 794.4688,332.9531 Q794.2656,332.7656 794.1563,332.25 Q794.1094,331.8906 793.9219,331.7031 Q793.5938,331.3281 792.9844,331.1094 Q792.375,330.8906 791.75,330.8906 Q790.9844,330.8906 790.3516,331.2188 Q789.7188,331.5469 789.2266,332.2969 Q788.7344,333.0469 788.7344,334.0781 L788.7344,335.1719 Q788.7344,336.4063 789.625,337.2266 Q790.5156,338.0469 792.1094,338.0469 Q793.0469,338.0469 793.7031,337.7969 Q794.0938,337.6406 794.5156,337.2031 Q794.7813,336.9375 794.9297,336.8594 Q795.0781,336.7813 795.2813,336.7813 Q795.6094,336.7813 795.8672,337.0391 Q796.125,337.2969 796.125,337.6406 Q796.125,337.9844 795.7813,338.3906 Q795.2813,338.9688 794.4844,339.2969 Q793.4063,339.75 792.1094,339.75 Q790.5938,339.75 789.3906,339.125 Q788.4063,338.625 787.7188,337.5547 Q787.0313,336.4844 787.0313,335.2031 L787.0313,334.0469 Q787.0313,332.7188 787.6484,331.5703 Q788.2656,330.4219 789.3594,329.8047 Q790.4531,329.1875 791.6875,329.1875 Q792.4219,329.1875 793.0703,329.3516 Q793.7188,329.5156 794.2656,329.875 Z " fill="#000000"/><text fill="#000000" font-family="sans-serif" font-size="14" lengthAdjust="spacing" textLength="59" x="805.5" y="339.7285">response</text><line style="stroke:#181818;stroke-width:0.5;" x1="777.5" x2="866.5" y1="350" y2="350"/><line style="stroke:#181818;stroke-width:0.5;" x1="777.5" x2="866.5" y1="358" y2="358"/></g><!--MD5=[e1162659ccadf9ee19235e5d57058077]
class via::http::request_method--><g id="elem_via::http::request_method"><rect fill="#F1F1F1" height="48" id="via::http::request_method" rx="2.5" ry="2.5" style="stroke:#181818;stroke-width:0.5;" width="135" x="446.5" y="446"/><ellipse cx="461.5" cy="462" fill="#ADD1B2" rx="11" ry="11" style="stroke:#181818;stroke-width:1.0;"/><path d="M464.2656,457.875 Q464.4219,457.6563 464.6094,457.5469 Q464.7969,457.4375 465.0156,457.4375 Q465.3906,457.4375 465.625,457.6953 Q465.8594,457.9531 465.8594,458.5625 L465.8594,460.0156 Q465.8594,460.625 465.625,460.8906 Q465.3906,461.1563 465.0156,461.1563 Q464.6719,461.1563 464.4688,460.9531 Q464.2656,460.7656 464.1563,460.25 Q464.1094,459.8906 463.9219,459.7031 Q463.5938,459.3281 462.9844,459.1094 Q462.375,458.8906 461.75,458.8906 Q460.9844,458.8906 460.3516,459.2188 Q459.7188,459.5469 459.2266,460.2969 Q458.7344,461.0469 458.7344,462.0781 L458.7344,463.1719 Q458.7344,464.4063 459.625,465.2266 Q460.5156,466.0469 462.1094,466.0469 Q463.0469,466.0469 463.7031,465.7969 Q464.0938,465.6406 464.5156,465.2031 Q464.7813,464.9375 464.9297,464.8594 Q465.0781,464.7813 465.2813,464.7813 Q465.6094,464.7813 465.8672,465.0391 Q466.125,465.2969 466.125,465.6406 Q466.125,465.9844 465.7813,466.3906 Q465.2813,466.9688 464.4844,467.2969 Q463.4063,467.75 462.1094,467.75 Q460.5938,467.75 459.3906,467.125 Q458.4063,466.625 457.7188,465.5547 Q457.0313,464.4844 457.0313,463.2031 L457.0313,462.0469 Q457.0313,460.7188 457.6484,459.5703 Q458.2656,458.4219 459.3594,457.8047 Q460.4531,457.1875 461.6875,457.1875 Q462.4219,457.1875 463.0703,457.3516 Q463.7188,457.5156 464.2656,457.875 Z " fill="#000000"/><text fill="#000000" font-family="sans-serif" font-size="14" lengthAdjust="spacing" textLength="103" x="475.5" y="467.7285">request_method</text><line style="stroke:#181818;stroke-width:0.5;" x1="447.5" x2="580.5" y1="478" y2="478"/><line style="stroke:#181818;stroke-width:0.5;" x1="447.5" x2="580.5" y1="486" y2="486"/></g><!--MD5=[90a791677003c4a743535dc6d97535e9]
class via::http::headers--><g id="elem_via::http::headers"><rect fill="#F1F1F1" height="48" id="via::http::headers" rx="2.5" ry="2.5" style="stroke:#181818;stroke-width:0.5;" width="84" x="789" y="446"/><ellipse cx="804" cy="462" fill="#ADD1B2" rx="11" ry="11" style="stroke:#181818;stroke-width:1.0;"/><path d="M806.7656,457.875 Q806.9219,457.6563 807.1094,457.5469 Q807.2969,457.4375 807.5156,457.4375 Q807.8906,457.4375 808.125,457.6953 Q808.3594,457.9531 808.3594,458.5625 L808.3594,460.0156 Q808.3594,460.625 808.125,460.8906 Q807.8906,461.1563 807.5156,461.1563 Q807.1719,461.1563 806.9688,460.9531 Q806.7656,460.7656 806.6563,460.25 Q806.6094,459.8906 806.4219,459.7031 Q806.0938,459.3281 805.4844,459.1094 Q804.875,458.8906 804.25,458.8906 Q803.4844,458.8906 802.8516,459.2188 Q802.2188,459.5469 801.7266,460.2969 Q801.2344,461.0469 801.2344,462.0781 L801.2344,463.1719 Q801.2344,464.4063 802.125,465.2266 Q803.0156,466.0469 804.6094,466.0469 Q805.5469,466.0469 806.2031,465.7969 Q806.5938,465.6406 807.0156,465.2031 Q807.2813,464.9375 807.4297,464.8594 Q807.5781,464.7813 807.7813,464.7813 Q808.1094,464.7813 808.3672,465.0391 Q808.625,465.2969 808.625,465.6406 Q808.625,465.9844 808.2813,466.3906 Q807.7813,466.9688 806.9844,467.2969 Q805.9063,467.75 804.6094,467.75 Q803.0938,467.75 801.8906,467.125 Q800.9063,466.625 800.2188,465.5547 Q799.5313,464.4844 799.5313,463.2031 L799.5313,462.0469 Q799.5313,460.7188 800.1484,459.5703 Q800.7656,458.4219 801.8594,457.8047 Q802.9531,457.1875 804.1875,457.1875 Q804.9219,457.1875 805.5703,457.3516 Q806.2188,457.5156 806.7656,457.875 Z " fill="#000000"/><text fill="#000000" font-family="sans-serif" font-size="14" lengthAdjust="spacing" textLength="52" x="818" y="467.7285">headers</text><line style="stroke:#181818;stroke-width:0.5;" x1="790" x2="872" y1="478" y2="478"/><line style="stroke:#181818;stroke-width:0.5;" x1="790" x2="872" y1="486" y2="486"/></g><!--MD5=[bfed32b34596d684ff3f035a8363291c]
class via::http::chunk--><g id="elem_via::http::chunk"><rect fill="#F1F1F1" height="48" id="via::http::chunk" rx="2.5" ry="2.5" style="stroke:#181818;stroke-width:0.5;" width="70" x="908" y="446"/><ellipse cx="923" cy="462" fill="#ADD1B2" rx="11" ry="11" style="stroke:#181818;stroke-width:1.0;"/><path d="M925.7656,457.875 Q925.9219,457.6563 926.1094,457.5469 Q926.2969,457.4375 926.5156,457.4375 Q926.8906,457.4375 927.125,457.6953 Q927.3594,457.9531 927.3594,458.5625 L927.3594,460.0156 Q927.3594,460.625 927.125,460.8906 Q926.8906,461.1563 926.5156,461.1563 Q926.1719,461.1563 925.9688,460.9531 Q925.7656,460.7656 925.6563,460.25 Q925.6094,459.8906 925.4219,459.7031 Q925.0938,459.3281 924.4844,459.1094 Q923.875,458.8906 923.25,458.8906 Q922.4844,458.8906 921.8516,459.2188 Q921.2188,459.5469 920.7266,460.2969 Q920.2344,461.0469 920.2344,462.0781 L920.2344,463.1719 Q920.2344,464.4063 921.125,465.2266 Q922.0156,466.0469 923.6094,466.0469 Q924.5469,466.0469 925.2031,465.7969 Q925.5938,465.6406 926.0156,465.2031 Q926.2813,464.9375 926.4297,464.8594 Q926.5781,464.7813 926.7813,464.7813 Q927.1094,464.7813 927.3672,465.0391 Q927.625,465.2969 927.625,465.6406 Q927.625,465.9844 927.2813,466.3906 Q926.7813,466.9688 925.9844,467.2969 Q924.9063,467.75 923.6094,467.75 Q922.0938,467.75 920.8906,467.125 Q919.9063,466.625 919.2188,465.5547 Q918.5313,464.4844 918.5313,463.2031 L918.5313,462.0469 Q918.5313,460.7188 919.1484,459.5703 Q919.7656,458.4219 920.8594,457.8047 Q921.9531,457.1875 923.1875,457.1875 Q923.9219,457.1875 924.5703,457.3516 Q925.2188,457.5156 925.7656,457.875 Z " fill="#000000"/><text fill="#000000" font-family="sans-serif" font-size="14" lengthAdjust="spacing" textLength="38" x="937" y="467.7285">chunk</text><line style="stroke:#181818;stroke-width:0.5;" x1="909" x2="977" y1="478" y2="478"/><line style="stroke:#181818;stroke-width:0.5;" x1="909" x2="977" y1="486" y2="486"/></g><!--MD5=[730bf329a924b4e01fb84ef80f5e45ff]
class via::http::response_status--><g id="elem_via::http::response_status"><rect fill="#F1F1F1" height="48" id="via::http::response_status" rx="2.5" ry="2.5" style="stroke:#181818;stroke-width:0.5;" width="137" x="616.5" y="446"/><ellipse cx="631.5" cy="462" fill="#ADD1B2" rx="11" ry="11" style="stroke:#181818;stroke-width:1.0;"/><path d="M634.2656,457.875 Q634.4219,457.6563 634.6094,457.5469 Q634.7969,457.4375 635.0156,457.4375 Q635.3906,457.4375 635.625,457.6953 Q635.8594,457.9531 635.8594,458.5625 L635.8594,460.0156 Q635.8594,460.625 635.625,460.8906 Q635.3906,461.1563 635.0156,461.1563 Q634.6719,461.1563 634.4688,460.9531 Q634.2656,460.7656 634.1563,460.25 Q634.1094,459.8906 633.9219,459.7031 Q633.5938,459.3281 632.9844,459.1094 Q632.375,458.8906 631.75,458.8906 Q630.9844,458.8906 630.3516,459.2188 Q629.7188,459.5469 629.2266,460.2969 Q628.7344,461.0469 628.7344,462.0781 L628.7344,463.1719 Q628.7344,464.4063 629.625,465.2266 Q630.5156,466.0469 632.1094,466.0469 Q633.0469,466.0469 633.7031,465.7969 Q634.0938,465.6406 634.5156,465.2031 Q634.7813,464.9375 634.9297,464.8594 Q635.0781,464.7813 635.2813,464.7813 Q635.6094,464.7813 635.8672,465.0391 Q636.125,465.2969 636.125,465.6406 Q636.125,465.9844 635.7813,466.3906 Q635.2813,466.9688 634.4844,467.2969 Q633.4063,467.75 632.1094,467.75 Q630.5938,467.75 629.3906,467.125 Q628.4063,466.625 627.7188,465.5547 Q627.0313,464.4844 627.0313,463.2031 L627.0313,462.0469 Q627.0313,460.7188 627.6484,459.5703 Q628.2656,458.4219 629.3594,457.8047 Q630.4531,457.1875 631.6875,457.1875 Q632.4219,457.1875 633.0703,457.3516 Q633.7188,457.5156 634.2656,457.875 Z " fill="#000000"/><text fill="#000000" font-family="sans-serif" font-size="14" lengthAdjust="spacing" textLength="105" x="645.5" y="467.7285">response_status</text><line style="stroke:#181818;stroke-width:0.5;" x1="617.5" x2="752.5" y1="478" y2="478"/><line style="stroke:#181818;stroke-width:0.5;" x1="617.5" x2="752.5" y1="486" y2="486"/></g><!--MD5=[c4c5b5934dffe262392eee3db09f09bc]
reverse link via::http_server to via::comms::server--><g id="link_via::http_server_via::comms::server"><path codeLine="13" d="M440.59,95.09 C416.13,103.8 390.12,114.24 367,126 C342.75,138.34 317.45,155.76 298.64,169.75 " fill="none" id="via::http_server-backto-via::comms::server" style="stroke:#181818;stroke-width:1.0;"/><polygon fill="#181818" points="452.56,90.93,445.5811,89.1149,441.2214,94.8589,448.2004,96.674,452.56,90.93" style="stroke:#181818;stroke-width:1.0;"/></g><!--MD5=[3566aa0d24c2d94651c8a07eed4c30e6]
reverse link via::http_server to via::http_connection--><g id="link_via::http_server_via::http_connection"><path codeLine="14" d="M544.45,103.98 C551.08,125.41 559.22,151.71 564.93,170.15 " fill="none" id="via::http_server-backto-via::http_connection" style="stroke:#181818;stroke-width:1.0;"/><polygon fill="#181818" points="540.69,91.85,538.6431,98.7645,544.2385,103.3133,546.2854,96.3988,540.69,91.85" style="stroke:#181818;stroke-width:1.0;"/><text fill="#000000" font-family="sans-serif" font-size="13" lengthAdjust="spacing" textLength="5" x="557.3581" y="159.1327">*</text></g><!--MD5=[863b9fe68da94edbca64da0356651df4]
reverse link via::http_connection to via::comms::connection--><g id="link_via::http_connection_via::comms::connection"><path codeLine="16" d="M513.29,224.35 C457.98,252.01 376.27,292.86 325.68,318.16 " fill="none" id="via::http_connection-backto-via::comms::connection" style="stroke:#181818;stroke-width:1.0;"/><polygon fill="#181818" points="524.7,218.65,517.5446,217.7556,513.9669,224.0166,521.1223,224.911,524.7,218.65" style="stroke:#181818;stroke-width:1.0;"/><text fill="#000000" font-family="sans-serif" font-size="13" lengthAdjust="spacing" textLength="7" x="330.0159" y="307.1454">1</text></g><!--MD5=[40d5071edd7e22b4517d7441274cde74]
reverse link via::http_connection to via::http::request--><g id="link_via::http_connection_via::http::request"><path codeLine="17" d="M600.03,228.82 C622.67,256.14 653.95,293.88 673.83,317.87 " fill="none" id="via::http_connection-backto-via::http::request" style="stroke:#181818;stroke-width:1.0;"/><polygon fill="#181818" points="591.87,218.98,592.6191,226.1521,599.5276,228.2191,598.7785,221.0471,591.87,218.98" style="stroke:#181818;stroke-width:1.0;"/></g><!--MD5=[c3a26ffe5ba2d17e7d172dd09fa03a83]
reverse link via::http_connection to via::http::response--><g id="link_via::http_connection_via::http::response"><path codeLine="18" d="M650.69,223.33 C682.75,236.52 719.39,253.79 750,274 C768.81,286.42 787.36,303.84 800.93,317.81 " fill="none" id="via::http_connection-backto-via::http::response" style="stroke:#181818;stroke-width:1.0;"/><polygon fill="#181818" points="638.67,218.49,642.7407,224.4422,649.8008,222.974,645.73,217.0217,638.67,218.49" style="stroke:#181818;stroke-width:1.0;"/></g><!--MD5=[383c7f3fcba07840ae2272a994d69e77]
reverse link via::http_client to via::comms::connection--><g id="link_via::http_client_via::comms::connection"><path codeLine="20" d="M639.97,89.6 C639.31,89.74 638.65,89.87 638,90 C545.59,108.57 505.32,70.68 429,126 C373.63,166.14 397.28,206.73 357,262 C342,282.59 321.8,303.11 305.86,318.07 " fill="none" id="via::http_client-backto-via::comms::connection" style="stroke:#181818;stroke-width:1.0;"/><polygon fill="#181818" points="652.57,86.97,645.8786,84.282,640.8238,89.4248,647.5152,92.1128,652.57,86.97" style="stroke:#181818;stroke-width:1.0;"/><text fill="#000000" font-family="sans-serif" font-size="13" lengthAdjust="spacing" textLength="7" x="304.8693" y="307.0312">1</text></g><!--MD5=[919c42917a2408d0d0fcf112ffbb08c1]
reverse link via::http_client to via::http::request--><g id="link_via::http_client_via::http::request"><path codeLine="21" d="M735.29,104.65 C732.05,144.12 725.67,207.82 715,262 C711.26,281 705.28,302.11 700.5,317.72 " fill="none" id="via::http_client-backto-via::http::request" style="stroke:#181818;stroke-width:1.0;"/><polygon fill="#181818" points="736.3,91.8,731.844,97.4695,735.3635,103.7634,739.8196,98.0939,736.3,91.8" style="stroke:#181818;stroke-width:1.0;"/></g><!--MD5=[d7479284779098b68a5774be8edb65d8]
reverse link via::http_client to via::http::response--><g id="link_via::http_client_via::http::response"><path codeLine="22" d="M749.38,104.11 C766.97,161.5 800.27,270.13 814.86,317.7 " fill="none" id="via::http_client-backto-via::http::response" style="stroke:#181818;stroke-width:1.0;"/><polygon fill="#181818" points="745.61,91.81,743.5464,98.7195,749.1307,103.2819,751.1943,96.3724,745.61,91.81" style="stroke:#181818;stroke-width:1.0;"/></g><!--MD5=[e368275b2f5aa5561b62b2d53400059a]
reverse link via::http::request to via::http::request_method--><g id="link_via::http::request_via::http::request_method"><path codeLine="26" d="M648.28,374.48 C616.98,396.51 575.83,425.48 547.37,445.51 " fill="none" id="via::http::request-backto-via::http::request_method" style="stroke:#181818;stroke-width:1.0;"/><polygon fill="#181818" points="658.51,367.28,651.3013,367.4646,648.6991,374.1898,655.9078,374.0052,658.51,367.28" style="stroke:#181818;stroke-width:1.0;"/></g><!--MD5=[e454caebe00beb82d5aec3365fa8e78b]
reverse link via::http::request to via::http::headers--><g id="link_via::http::request_via::http::headers"><path codeLine="27" d="M729.11,375.97 C753.12,397.89 784.05,426.13 805.5,445.72 " fill="none" id="via::http::request-backto-via::http::headers" style="stroke:#181818;stroke-width:1.0;"/><polygon fill="#181818" points="719.75,367.42,721.4814,374.4202,728.609,375.5144,726.8776,368.5142,719.75,367.42" style="stroke:#181818;stroke-width:1.0;"/></g><!--MD5=[271c88039586b5d62981ff23b37c3555]
reverse link via::http::request to via::http::chunk--><g id="link_via::http::request_via::http::chunk"><path codeLine="28" d="M738.77,374.1 C745.46,378.27 752.34,382.35 759,386 C765.99,389.83 856.04,430.16 907.52,453.16 " fill="none" id="via::http::request-backto-via::http::chunk" style="stroke:#181818;stroke-width:1.0;"/><polygon fill="#181818" points="727.92,367.16,730.8228,373.761,738.0325,373.6204,735.1297,367.0194,727.92,367.16" style="stroke:#181818;stroke-width:1.0;"/></g><!--MD5=[7208b157b44a3c2a7101d69af20dca6f]
reverse link via::http::request to via::http::response_status--><g id="link_via::http::request_via::http::response_status"><path codeLine="29" d="M690.6,380.81 C689.26,401.92 687.63,427.54 686.48,445.72 " fill="none" id="via::http::request-backto-via::http::response_status" style="stroke:#181818;stroke-width:1.0;"/><polygon fill="#181818" points="691.42,367.91,687.0461,373.6431,690.6559,379.8856,695.0298,374.1525,691.42,367.91" style="stroke:#181818;stroke-width:1.0;"/></g><!--MD5=[9ec54df6094abe9f9cda0a1e8809f186]
reverse link via::http::response to via::http::response_status--><g id="link_via::http::response_via::http::response_status"><path codeLine="31" d="M786.15,375.97 C762.32,397.89 731.61,426.13 710.31,445.72 " fill="none" id="via::http::response-backto-via::http::response_status" style="stroke:#181818;stroke-width:1.0;"/><polygon fill="#181818" points="795.44,367.43,788.3158,368.5463,786.6062,375.5518,793.7304,374.4355,795.44,367.43" style="stroke:#181818;stroke-width:1.0;"/></g><!--MD5=[9fd36c9f6df362e2897c8eafa6592af8]
reverse link via::http::response to via::http::headers--><g id="link_via::http::response_via::http::headers"><path codeLine="32" d="M824.7,380.81 C826.21,401.92 828.04,427.54 829.34,445.72 " fill="none" id="via::http::response-backto-via::http::headers" style="stroke:#181818;stroke-width:1.0;"/><polygon fill="#181818" points="823.78,367.91,820.2191,374.1806,824.6378,379.8793,828.1987,373.6087,823.78,367.91" style="stroke:#181818;stroke-width:1.0;"/></g><!--MD5=[3613365a955a8c5c9340411d99a25133]
reverse link via::http::response to via::http::chunk--><g id="link_via::http::response_via::http::chunk"><path codeLine="33" d="M854.52,376.87 C875.44,398.65 902.09,426.4 920.64,445.72 " fill="none" id="via::http::response-backto-via::http::chunk" style="stroke:#181818;stroke-width:1.0;"/><polygon fill="#181818" points="845.52,367.5,846.791,374.5982,853.832,376.1551,852.561,369.0569,845.52,367.5" style="stroke:#181818;stroke-width:1.0;"/></g><!--MD5=[d3957b3e7da5cbef99ffd4bc4c690094]
reverse link via::comms::server to via::comms::tcp_acceptor--><g id="link_via::comms::server_via::comms::tcp_acceptor"><path codeLine="45" d="M219.83,226.31 C198.78,240.27 174.21,257.31 153,274 C135.57,287.72 117.07,304.47 102.93,317.79 " fill="none" id="via::comms::server-backto-via::comms::tcp_acceptor" style="stroke:#181818;stroke-width:1.0;"/><polygon fill="#181818" points="230.5,219.31,223.2891,219.2594,220.4689,225.8962,227.6799,225.9468,230.5,219.31" style="stroke:#181818;stroke-width:1.0;"/></g><!--MD5=[6ee57042ed0eba6952fd549e249dd717]
reverse link via::comms::server to via::comms::connection--><g id="link_via::comms::server_via::comms::connection"><path codeLine="46" d="M271.85,232.84 C273.88,259.83 276.55,295.26 278.27,318.08 " fill="none" id="via::comms::server-backto-via::comms::connection" style="stroke:#181818;stroke-width:1.0;"/><polygon fill="none" points="270.88,219.97,267.3398,226.2523,271.7772,231.9364,275.3174,225.6542,270.88,219.97" style="stroke:#181818;stroke-width:1.0;"/></g><!--MD5=[606c62ab58cfad44168cde03b7e5c1b9]
@startuml

'Copyright (c) 2013-2024 Ken Barker

' title Via Namespaces

set namespaceSeparator ::

namespace via {
    class http_server<socket_type>
    class http_connection<socket_type>
    class http_client<socket_type>

    http_server *- - via::comms::server
    http_server *- - "*" via::http_connection

    http_connection *- - "1" via::comms::connection
    http_connection *- - via::http::request
    http_connection *- - via::http::response

    http_client *- - "1" via::comms::connection
    http_client *- - via::http::request
    http_client *- - via::http::response
}

namespace via::http {
    request *- - request_method
    request *- - headers
    request *- - chunk
    request *- - response_status

    response *- - response_status
    response *- - headers
    response *- - chunk
}

namespace via::comms {
    class server<socket_type> 
    class connection<socket_type> 

    note bottom of connection
        **socket_type** is either
        **tcp_socket** or **ssl_socket**
    end note

    server *- - tcp_acceptor
    server o- - connection
}

@enduml

@startuml



set namespaceSeparator ::

namespace via {
    class http_server<socket_type>
    class http_connection<socket_type>
    class http_client<socket_type>

    http_server *- - via::comms::server
    http_server *- - "*" via::http_connection

    http_connection *- - "1" via::comms::connection
    http_connection *- - via::http::request
    http_connection *- - via::http::response

    http_client *- - "1" via::comms::connection
    http_client *- - via::http::request
    http_client *- - via::http::response
}

namespace via::http {
    request *- - request_method
    request *- - headers
    request *- - chunk
    request *- - response_status

    response *- - response_status
    response *- - headers
    response *- - chunk
}

namespace via::comms {
    class server<socket_type> 
    class connection<socket_type> 

    note bottom of connection
        **socket_type** is either
        **tcp_socket** or **ssl_socket**
    end note

    server *- - tcp_acceptor
    server o- - connection
}

@enduml

PlantUML version 1.2022.8(Sun Sep 25 10:00:33 BST 2022)
(GPL source distribution)
Java Runtime: Java(TM) SE Runtime Environment
JVM: Java HotSpot(TM) Client VM
Default Encoding: Cp1252
Language: en
Country: GB
--></g></svg>